<?xml version="1.0" encoding="utf-8"?>
<!-- Generator: Adobe Illustrator 22.0.1, SVG Export Plug-In . SVG Version: 6.00 Build 0)  -->
<svg version="1.1" id="Layer_1" xmlns="http://www.w3.org/2000/svg" xmlns:xlink="http://www.w3.org/1999/xlink" x="0px" y="0px"
	 viewBox="0 0 3779.6 1321.2" style="enable-background:new 0 0 3779.6 1321.2;" xml:space="preserve">
<style type="text/css">
	.st0{fill:#FFCC66;}
	.st1{fill:#FFFFFF;}
</style>
<g>
	<path class="st0" d="M687.9,2.6l529.5,108.3c61.9,12.7,106.4,68.2,106.4,132.7v942.1c0,85.4-76.4,149.5-158.3,132.7l-477.6-97.7
		c-17.1-3.5-34.8-3.5-51.9,0l-477.6,97.7C76.4,1335.2,0,1271.2,0,1185.8V243.6c0-64.5,44.5-120.1,106.4-132.7L635.9,2.6
		C653.1-0.9,670.7-0.9,687.9,2.6z"/>
	<polygon class="st1" points="661.9,990.2 579.2,742 330.9,659.3 579.2,576.5 661.9,328.3 744.6,576.5 992.8,659.3 744.6,742 	"/>
	<g>
		<path class="st1" d="M1569.1,547.7h-54.5l15-35.1l162.9-375.8l6.9-15h32.6l6.9,15l162.9,375.8l15,35.1h-54.5l-6.9-15L1715.7,210
			L1576,532.6L1569.1,547.7z"/>
		<path class="st1" d="M2114.7,334.1c0-6.3-2.3-12.1-6.9-17.5c-10.4-12.9-27.2-19.4-50.1-19.4c-8.8,0-17.3,1.3-25.7,3.8
			c-20.9,6.7-31.3,17.8-31.3,33.2c0,3.3,1.3,6.7,3.8,10c5.8,7.1,25.1,15.7,57.6,25.7c20.9,6.3,36.3,11.5,46.4,15.7
			c44.3,18,66.2,43,65.8,75.2c0,16.7-6.3,32.6-18.8,47.6c-22.6,26.3-55.1,39.5-97.7,39.5c-30.1,0-56.2-7.3-78.3-21.9
			c-25.5-17.5-38.2-39.2-38.2-65.1h50.1c0,6.3,2.5,12.1,7.5,17.5c11.7,12.9,31.3,19.4,58.9,19.4c9.6,0,19.2-1.3,28.8-3.8
			c25.1-6.3,37.6-17.3,37.6-33.2c0-2.9-1-6-3.1-9.4c-5.9-7.1-24.8-15.4-57-25.1c-20.5-6.3-35.9-11.5-46.4-15.7
			c-44.3-18-66.6-43.4-67-76.4c0-17.5,6.3-34,18.8-49.5c20.9-25.1,50.3-37.6,88.3-37.6c26.3,0,49.5,6.9,69.5,20.7
			c25.1,17.5,37.6,39.7,37.6,66.4H2114.7z"/>
		<path class="st1" d="M2303.9,459.3c0.4,24.6,15.7,37.4,45.7,38.2h25.1v50.1h-25.1c-11.7,0-22.8-1.3-33.2-3.8
			c-41.8-9.6-62.6-37.6-62.6-83.9v-0.6V297.1h-16.9h-25.1V247h25.1h16.9v-65.8l0.6-24.4h50.7l-0.6,25.1V247h45.1h25.1v50.1h-25.1
			h-45.1L2303.9,459.3z"/>
		<path class="st1" d="M2666.5,488.8c-29.2,39.3-68.1,58.9-116.5,58.9c-33.8,0-63.9-12.1-90.2-36.3c-31.7-29.6-47.6-67.7-47.6-114
			c0-38.8,11.9-72.7,35.7-101.5c27.6-32.6,61.6-48.9,102.1-48.9c33.8,0,63.7,12.1,89.6,36.3c32.2,29.7,48.2,67.7,48.2,114v25.1
			h-25.1h-197.9c2.9,12.5,7.9,24.2,15,35.1c17.5,26.7,40.9,40.1,70.2,40.1c30.9,0,56.4-12.9,76.4-38.8L2666.5,488.8z M2637.7,372.3
			c0-12.1-5.6-25.3-16.9-39.5c-19.6-23.8-43.2-35.7-70.8-35.7c-12.9,0-25.3,3.1-37,9.4c-25.1,12.9-41.1,34.9-48.2,65.8H2637.7z"/>
		<path class="st1" d="M2893.3,247h25.1v50.1h-25.1c-13.8,0-26.3,3.1-37.6,9.4c-28,15.5-42.2,44.5-42.6,87.1v3.8v25.1v100.2v25.1
			H2763v-25.1V422.4v-25.1c0-1.3,0-2.3,0-3.1V272V247h50.1V272v1.3C2835.2,256.2,2862,247.4,2893.3,247z"/>
		<path class="st1" d="M2965.3,208.8v-50.1h25.1h0.6h25.1v50.1H2991h-0.6H2965.3z M2965.3,247h50.1V272v250.6v25.1h-50.1v-25.1V272
			V247z"/>
		<path class="st1" d="M3248.5,334.1c0-6.3-2.3-12.1-6.9-17.5c-10.4-12.9-27.2-19.4-50.1-19.4c-8.8,0-17.3,1.3-25.7,3.8
			c-20.9,6.7-31.3,17.8-31.3,33.2c0,3.3,1.3,6.7,3.8,10c5.8,7.1,25.1,15.7,57.6,25.7c20.9,6.3,36.3,11.5,46.4,15.7
			c44.3,18,66.2,43,65.8,75.2c0,16.7-6.3,32.6-18.8,47.6c-22.6,26.3-55.1,39.5-97.7,39.5c-30.1,0-56.2-7.3-78.3-21.9
			c-25.5-17.5-38.2-39.2-38.2-65.1h50.1c0,6.3,2.5,12.1,7.5,17.5c11.7,12.9,31.3,19.4,58.9,19.4c9.6,0,19.2-1.3,28.8-3.8
			c25.1-6.3,37.6-17.3,37.6-33.2c0-2.9-1-6-3.1-9.4c-5.9-7.1-24.8-15.4-57-25.1c-20.5-6.3-35.9-11.5-46.4-15.7
			c-44.3-18-66.6-43.4-67-76.4c0-17.5,6.3-34,18.8-49.5c20.9-25.1,50.3-37.6,88.3-37.6c26.3,0,49.5,6.9,69.5,20.7
			c25.1,17.5,37.6,39.7,37.6,66.4H3248.5z"/>
		<path class="st1" d="M3582.3,289.6c22.6-28.4,50.9-42.6,85.2-42.6c25.5,0,48.4,8.6,68.9,25.7c28.4,24.2,42.6,55.7,42.6,94.6v155.3
			l0.6,25.7h-49.5l-0.6-25.1l-0.6-156c0-13.4-3.1-26.1-9.4-38.2c-12.1-21.3-29.4-31.9-52-31.9c-12.1,0-23.4,3.8-33.8,11.3
			c-18.4,13.8-27.6,33.4-27.6,58.9v25.1v130.3l0.6,25.7h-49.5l-0.6-25.1l-0.6-130.9v-25.1c0-13.4-3.1-26.1-9.4-38.2
			c-12.1-21.3-29.4-31.9-52-31.9c-12.1,0-23.4,3.8-33.8,11.3c-18.4,13.8-27.6,33.4-27.6,58.9v25.1v130.3v25.1h-50.1v-25.1V392.3
			v-25.1V272V247h50.1v20c18.4-12.9,38.8-19.6,61.4-20c34.2,0.8,63.1,15.5,86.4,43.8C3581.5,290.8,3581.9,290.4,3582.3,289.6z"/>
		<path class="st1" d="M1828.4,773.5h25.1v50.1h-25.1h-112.1v350.8v25.1h-50.1v-25.1V823.6h-113.4h-25.1v-50.1h25.1h113.4h50.1
			H1828.4z"/>
		<path class="st1" d="M2046.4,898.8h25.1v50.1h-25.1c-13.8,0-26.3,3.1-37.6,9.4c-28,15.5-42.2,44.5-42.6,87.1v3.8v25.1v100.2v25.1
			h-50.1v-25.1v-100.2v-25.1c0-1.3,0-2.3,0-3.1V923.8v-25.1h50.1v25.1v1.3C1988.4,908,2015.1,899.2,2046.4,898.8z"/>
		<path class="st1" d="M2357.1,1140.6c-29.2,39.3-68.1,58.9-116.5,58.9c-33.8,0-63.9-12.1-90.2-36.3c-31.7-29.6-47.6-67.7-47.6-114
			c0-38.8,11.9-72.7,35.7-101.5c27.6-32.6,61.6-48.9,102.1-48.9c33.8,0,63.7,12.1,89.6,36.3c32.2,29.7,48.2,67.7,48.2,114v25.1
			h-25.1h-197.9c2.9,12.5,7.9,24.2,15,35.1c17.5,26.7,40.9,40.1,70.2,40.1c30.9,0,56.4-12.9,76.4-38.8L2357.1,1140.6z
			 M2328.3,1024.1c0-12.1-5.6-25.3-16.9-39.5c-19.6-23.8-43.2-35.7-70.8-35.7c-12.9,0-25.3,3.1-37,9.4
			c-25.1,12.9-41.1,34.9-48.2,65.8H2328.3z"/>
		<path class="st1" d="M2602,985.9c0-6.3-2.3-12.1-6.9-17.5c-10.4-12.9-27.2-19.4-50.1-19.4c-8.8,0-17.3,1.3-25.7,3.8
			c-20.9,6.7-31.3,17.8-31.3,33.2c0,3.3,1.3,6.7,3.8,10c5.8,7.1,25.1,15.7,57.6,25.7c20.9,6.3,36.3,11.5,46.4,15.7
			c44.3,18,66.2,43,65.8,75.2c0,16.7-6.3,32.6-18.8,47.6c-22.6,26.3-55.1,39.5-97.7,39.5c-30.1,0-56.2-7.3-78.3-21.9
			c-25.5-17.5-38.2-39.2-38.2-65.1h50.1c0,6.3,2.5,12.1,7.5,17.5c11.7,12.9,31.3,19.4,58.9,19.4c9.6,0,19.2-1.3,28.8-3.8
			c25.1-6.3,37.6-17.3,37.6-33.2c0-2.9-1-6-3.1-9.4c-5.9-7.1-24.8-15.4-57-25.1c-20.5-6.3-35.9-11.5-46.4-15.7
			c-44.3-18-66.6-43.4-67-76.4c0-17.5,6.3-34,18.8-49.5c20.9-25.1,50.3-37.6,88.3-37.6c26.3,0,49.5,6.9,69.5,20.7
			c25.1,17.5,37.6,39.7,37.6,66.4H2602z"/>
		<path class="st1" d="M2748.6,947c27.1-32.2,60.8-48.2,100.9-48.2c33.8,0,63.7,12.1,89.6,36.3c32.2,29.7,48.2,67.7,48.2,114
			c0,39.3-12.3,73.3-37,102.1c-27.1,32.2-60.8,48.2-100.9,48.2c-33.8,0-63.7-12.1-89.6-36.3c-32.2-29.6-48.2-67.7-48.2-114
			C2711.6,1009.9,2724,975.8,2748.6,947z M2779.9,1109.9c17.5,26.3,40.7,39.5,69.5,39.5c19.6,0,37.2-6.7,52.6-20
			c23.4-20.5,35.1-47.2,35.1-80.2c0-22.1-6.1-42.4-18.2-60.8c-17.5-26.3-40.7-39.5-69.5-39.5c-19.6,0-37.2,6.7-52.6,20
			c-23.4,20.5-35.1,47.2-35.1,80.2C2761.8,1071.3,2767.8,1091.5,2779.9,1109.9z"/>
		<path class="st1" d="M3192.7,898.8h25.1v50.1h-25.1c-13.8,0-26.3,3.1-37.6,9.4c-28,15.5-42.2,44.5-42.6,87.1v3.8v25.1v100.2v25.1
			h-50.1v-25.1v-100.2v-25.1c0-1.3,0-2.3,0-3.1V923.8v-25.1h50.1v25.1v1.3C3134.7,908,3161.4,899.2,3192.7,898.8z"/>
	</g>
</g>
</svg>
