<?xml version="1.0" standalone="no"?>
<!DOCTYPE svg PUBLIC "-//W3C//DTD SVG 20010904//EN"
 "http://www.w3.org/TR/2001/REC-SVG-20010904/DTD/svg10.dtd">
<svg version="1.0" xmlns="http://www.w3.org/2000/svg"
 width="386.000000pt" height="160.000000pt" viewBox="0 0 386.000000 160.000000"
 preserveAspectRatio="xMidYMid meet">
<metadata>
Created by potrace 1.16, written by Peter Selinger 2001-2019
</metadata>
<g transform="translate(0.000000,160.000000) scale(0.100000,-0.100000)"
fill="#000000" stroke="none">
<path d="M0 800 l0 -800 1930 0 1930 0 0 800 0 800 -1930 0 -1930 0 0 -800z
m1177 554 c20 -31 23 -17 -72 -294 -59 -172 -155 -497 -155 -523 0 -6 8 -3 18
6 22 20 32 13 32 -22 0 -31 -25 -71 -45 -71 -26 0 -37 -41 -42 -160 -5 -110
-4 -119 15 -138 21 -21 21 -22 2 -32 -28 -15 -66 3 -87 42 -18 34 -23 129 -13
236 l5 52 -149 61 c-82 33 -155 58 -161 55 -34 -13 -185 -302 -207 -395 -6
-28 -14 -51 -18 -51 -3 0 -16 9 -28 20 -52 49 -1 207 130 402 21 31 38 59 38
62 0 8 -73 26 -108 26 l-33 0 16 29 c19 37 59 47 126 31 28 -7 54 -9 58 -4 4
5 38 50 76 99 102 134 212 262 385 446 54 58 165 149 181 149 10 0 26 -12 36
-26z m2543 -85 c97 -55 107 -207 18 -270 -17 -12 -54 -24 -87 -28 -57 -7 -60
-9 -151 -99 -65 -64 -97 -89 -104 -82 -7 7 8 29 48 69 43 43 57 64 52 77 -6
15 -11 13 -39 -14 -58 -56 -81 -33 -25 25 27 28 29 33 14 39 -13 5 -34 -9 -77
-52 -44 -44 -62 -55 -70 -47 -9 9 12 35 85 107 93 91 96 96 96 139 0 118 135
195 240 136z m-2163 -174 c25 -25 33 -40 28 -53 -22 -52 -22 -52 49 -47 59 4
66 3 66 -13 0 -37 -23 -51 -90 -55 l-65 -3 -13 -40 c-24 -70 -139 -458 -147
-494 -7 -30 -6 -33 8 -22 21 18 119 184 156 266 38 84 72 131 111 151 30 15
86 20 115 9 45 -18 59 -126 26 -218 -25 -71 -89 -164 -147 -213 -40 -35 -44
-41 -26 -45 46 -12 128 58 212 182 34 50 36 58 24 75 -32 43 -3 156 52 205 40
34 47 36 68 14 20 -19 20 -32 0 -89 -8 -26 -14 -51 -12 -56 8 -24 163 98 181
143 7 15 57 -35 57 -57 0 -7 -15 -49 -34 -93 -38 -88 -96 -263 -96 -288 0 -28
25 0 84 95 69 110 89 155 117 264 24 96 37 106 70 55 28 -45 21 -100 -37 -278
-25 -78 -43 -144 -41 -147 6 -6 48 55 126 185 50 84 60 106 51 121 -5 11 -10
33 -10 50 0 65 40 106 96 99 36 -4 46 -41 15 -57 -17 -9 -18 -16 -10 -43 9
-33 116 -198 128 -198 13 0 70 97 76 130 23 126 38 180 50 180 8 0 24 -14 36
-31 20 -28 21 -36 12 -73 -11 -40 -11 -40 5 -16 30 46 98 109 125 115 47 12
75 -16 79 -77 l3 -52 26 40 c37 55 75 91 110 103 27 9 34 7 56 -15 24 -24 25
-30 19 -86 -3 -34 -26 -130 -52 -215 -25 -85 -43 -160 -41 -166 4 -14 56 65
125 193 66 122 75 135 96 127 14 -6 11 -17 -25 -88 -60 -120 -142 -249 -184
-289 l-36 -35 -26 29 c-23 28 -25 35 -21 105 3 45 18 119 37 181 18 58 35 113
37 123 7 23 -28 23 -48 0 -65 -73 -167 -335 -170 -435 -1 -35 -17 -36 -53 -3
-32 31 -33 24 27 273 43 179 44 208 1 181 -44 -27 -92 -133 -147 -324 -30
-101 -34 -110 -57 -110 -24 0 -24 1 -22 80 2 44 5 91 8 104 5 21 4 23 -8 13
-8 -7 -17 -37 -19 -67 -5 -59 -34 -102 -88 -130 -105 -55 -224 7 -205 107 13
65 60 100 139 102 54 1 54 1 37 21 -9 11 -31 37 -49 57 l-31 38 -28 -48 c-46
-79 -159 -246 -181 -265 -11 -10 -29 -17 -39 -15 -16 3 -18 14 -18 100 0 53
-1 95 -2 94 -2 -1 -20 -29 -41 -62 -87 -134 -137 -166 -162 -104 -19 46 -5
166 34 287 l7 23 -53 -25 c-29 -14 -60 -25 -68 -25 -8 0 -37 -35 -65 -78 -61
-95 -158 -194 -205 -208 -78 -24 -129 20 -152 130 l-11 57 -47 -73 c-50 -78
-102 -138 -118 -138 -6 0 -14 5 -18 11 -8 14 -8 115 1 184 7 48 6 49 -11 33
-13 -13 -17 -30 -15 -57 3 -51 -20 -94 -69 -130 -75 -54 -173 -49 -210 12 -44
72 -9 153 75 175 28 7 60 10 73 7 12 -3 22 -3 22 1 0 3 -25 36 -57 72 -75 89
-98 141 -83 187 14 41 44 65 83 65 41 0 47 -27 15 -71 -9 -13 -6 -27 16 -70
38 -72 106 -160 118 -153 22 14 86 126 93 161 3 21 20 85 36 143 16 58 29 108
29 112 0 4 -14 6 -30 4 -17 -2 -32 0 -35 3 -7 12 39 62 60 65 14 2 25 18 38
57 25 78 25 79 38 79 6 0 27 -16 46 -35z"/>
<path d="M972 1133 c-203 -219 -411 -478 -395 -494 11 -11 214 -88 251 -95 28
-6 29 -5 52 83 31 119 103 342 156 487 25 65 43 121 41 123 -3 2 -50 -45 -105
-104z"/>
<path d="M3591 1216 c-45 -25 -63 -84 -40 -129 23 -42 51 -58 97 -53 50 4 78
26 87 67 20 91 -65 159 -144 115z"/>
<path d="M1690 690 c-47 -66 -123 -280 -106 -298 12 -11 58 44 88 103 35 68
58 144 58 193 0 40 -12 41 -40 2z"/>
<path d="M1097 403 c-14 -17 -21 -42 -18 -70 0 -7 12 -20 25 -29 23 -14 28
-14 60 1 36 17 72 75 62 101 -8 22 -108 19 -129 -3z"/>
<path d="M2490 400 c-29 -29 -26 -76 5 -96 22 -14 30 -15 56 -3 35 14 69 62
69 97 0 20 -5 22 -55 22 -42 0 -60 -5 -75 -20z"/>
</g>
</svg>
