<?xml version="1.0" encoding="utf-8"?>
<!-- Generator: Adobe Illustrator 22.0.1, SVG Export Plug-In . SVG Version: 6.00 Build 0)  -->
<svg version="1.1" id="Layer_1" xmlns="http://www.w3.org/2000/svg" xmlns:xlink="http://www.w3.org/1999/xlink" x="0px" y="0px"
	 viewBox="0 0 3398 1213" style="enable-background:new 0 0 3398 1213;" xml:space="preserve">
<style type="text/css">
	.st0{fill:#FAD67F;}
	.st1{fill:#FFFFFF;}
</style>
<path class="st0" d="M1,1113c1-5.2,2.2-10.4,2.9-15.6c2.9-19.4,9-38,15.6-56.4c12-33.4,26.7-65.6,43.5-96.8
	c15.1-28,30.7-55.8,47.3-82.9c23.7-38.5,48.6-76.2,73-114.2c1.5-2.3,0.9-3.4-1.4-4c-25.1-6.7-50.3-13.4-75.4-20.1
	c-10.3-2.7-20.8-3.6-31.4-2.9c-7.5,0.5-14,3.1-18.2,11.5c-1.2-3.5-2.8-6.2-2.9-9c-0.6-13.5,1.3-26.7,9.7-37.8
	c9.1-12,21.2-19.6,35.9-23.2c14-3.5,28.3-5.8,42.5-4.3c15.7,1.7,31.3,5,46.5,8.8c13.5,3.4,26.6,8.7,39.9,13c1.1,0.3,3.2-0.4,3.9-1.4
	c17.9-24.3,35.6-48.9,53.6-73.1c11.5-15.5,23.6-30.6,35.5-45.8c10.5-13.4,20.9-26.9,31.5-40.2c9.2-11.5,18.7-22.9,28-34.3
	c9.7-12,19.3-24,29.1-35.9c7.6-9.3,15.6-18.3,23.3-27.5c8.3-9.9,16.6-20,24.9-29.9c6.7-7.9,13.6-15.6,20.4-23.5
	c10.2-11.8,20.3-23.7,30.6-35.5c5.6-6.5,11.4-12.8,17.1-19.2c13-14.7,26-29.4,39.1-44c3.7-4.2,7.6-8.3,11.4-12.4
	c14.1-15.1,28.2-30.3,42.4-45.4c11.3-12.1,22.6-24.3,34.2-36.1c24.4-25,48.8-50,73.7-74.6c15.9-15.7,32.1-31.2,49-45.9
	c17.3-15.1,35.3-29.3,53.5-43.4c5.4-4.2,12.1-6.7,18.2-10c3.3,0,6.7,0,10,0c14.3,11.3,26.8,24.2,34.5,41c4.7,10.3,7.1,21.3,6.2,32.5
	c-0.5,6.5-3.7,12.7-5.9,19c-7.2,19.9-14.7,39.7-21.7,59.6c-15.8,45.3-31.5,90.7-47.1,136.1C813,321.1,802.2,353,791.6,385
	c-7.1,21.3-13.9,42.7-20.6,64.1c-11.1,35.4-22.3,70.7-32.9,106.3c-10.4,35.1-20.4,70.3-30.1,105.6c-9.5,34.5-18.4,69.2-27.3,103.8
	c-4.1,16.1-7.8,32.3-11.6,48.4c-0.2,0.8,0,1.6,0,2.4c14.3,0.7,26.4-13.9,29.4-35.2c6.2,4.7,10.2,10.9,13,17.7
	c4.2,10.3,7.1,21.2,6.5,32.5c-0.8,16-5.7,30.5-16,43.3c-12,14.9-27.7,22.5-45.8,26c-5.8,1.1-7.4,4-8.2,9.1
	c-2,12.9-4.5,25.7-6.7,38.6c-1.6,9.7-2.9,19.4-4.2,29.1c-1.7,12.8-3.4,25.6-4.9,38.5c-0.9,7.2-1.8,14.4-2,21.6
	c-0.8,26-2.2,52.1-1.8,78.1c0.2,17.9,2.7,36,10.1,52.6c5.7,13,12.3,24.7,34.6,30.1c-9.8,8.3-21.4,12.4-32.9,16.5c-7.7,0-15.3,0-23,0
	c-5-1.8-10.1-3.2-14.8-5.5c-23-11.3-34.4-31.8-42.1-54.9c-8-24.1-10.9-49.2-11.8-74.4c-0.8-22.2,0.3-44.5,0.8-66.8
	c0.2-7.9,1.2-15.8,2.1-23.6c1.1-10.1,2.5-20.1,3.9-30.2c1.4-10.5,2.8-21.1,4.5-31.6c1.7-10.6,3.7-21.2,5.4-31.8
	c0.4-2.5-0.4-3.9-3.4-4.3c-4.3-0.5-8.8-1.2-12.8-2.7c-26-9.8-52.1-19.5-77.9-30c-34.4-13.9-68.5-28.6-102.9-42.7
	c-34.2-14.1-68.5-27.9-102.7-41.9c-2.5-1-3.8-0.5-5.1,1.7c-4,6.4-8.2,12.6-12.2,18.9c-20.7,33.4-41.8,66.6-62,100.3
	c-14.7,24.5-28.6,49.4-42.3,74.5c-8.7,15.9-16.6,32.3-24.5,48.6c-7.3,15.1-14.9,30.2-20.7,45.9c-10.8,28.8-21,57.8-30.4,87.1
	c-4,12.6-6.2,26-7.7,39.3c-0.8,7.1,1.5,14.6,2.4,22.2c-4.2-1.2-9-2.6-13.8-4c-20.9-6.2-35.9-18.9-42.9-40c-2.2-6.5-3.4-13.4-5-20.1
	C1,1136.3,1,1124.7,1,1113z M802.5,125.2c-2.2,2.1-3.4,3.1-4.5,4.3c-13.6,13.9-27.2,27.8-40.8,41.8c-9,9.3-18,18.6-27,28
	c-15.7,16.4-31.5,32.8-47.2,49.2c-7.9,8.3-15.5,16.8-23.2,25.2c-12.8,13.8-25.7,27.6-38.5,41.5c-6.9,7.5-13.9,15-20.7,22.7
	c-13,14.8-25.9,29.8-38.8,44.7c-7.4,8.5-15,16.7-22.2,25.3c-12.8,15.2-25.3,30.6-38,45.9c-13,15.7-26.2,31.2-38.9,47
	c-18,22.3-35.7,44.8-53.4,67.4c-11.9,15.2-23.7,30.5-35.3,45.9c-15,20-29.9,40.1-44.8,60.2c-8.8,12-17.5,24.2-26.3,36.5
	c1.1,0.6,1.6,1,2.2,1.3c28.6,12.2,57,25,85.9,36.3c37.7,14.8,75.6,29.2,113.9,42.4c23.6,8.2,48.1,13.9,72.2,20.8
	c3.5,1,4.3-0.6,4.9-3.4c2-9.2,3.9-18.5,6.2-27.6c7.7-29.8,15.3-59.6,23.7-89.1c12.6-44.6,25.6-89.1,38.7-133.5
	c7.3-24.5,15.1-48.8,23-73.1c8.5-26,17.4-51.9,26.3-77.7c11.9-34.3,23.8-68.6,36-102.7c10.3-28.8,20.9-57.5,31.5-86.2
	c7.6-20.4,15.4-40.8,23.1-61.2C794.3,146.8,798.2,136.7,802.5,125.2z"/>
<path class="st0" d="M3399,265c-2,8.1-3.9,16.3-6,24.4c-4.4,17.3-12.7,32.8-23.2,47.2c-16.3,22.5-37.4,39.4-62.7,50.8
	c-12.8,5.8-26.1,10.2-40.2,11.6c-9.8,1-19.7,2-29.6,1.9c-9-0.2-18-1.5-26.8-3.2c-3.7-0.7-5.8,0.1-8.2,2.5
	c-56.6,56.7-113.3,113.4-170,170.1c-7.3,7.3-15.8,9.1-23.1,4.9c-9.4-5.4-11.3-18.5-3.7-26.2c34.2-34.2,68.3-68.4,102.6-102.4
	c2.4-2.4,2.8-4.4,1.5-7.2c-4.1-8.7-8.2-17.4-12.5-26.7c-1.4,1.3-2.7,2.5-4,3.7c-18.5,18.5-37.1,36.9-55.5,55.5
	c-5.2,5.3-11.4,7.2-18.2,4.8c-6.7-2.3-10.6-7.8-11.3-14.7c-0.5-4.9,1.6-9.4,5.3-13.1c18.6-18.4,37-37,55.6-55.4
	c1.3-1.3,3-2.1,5.4-3.8c-11.8-5.2-21.9-9.7-33-14.6c-1,1.3-2.2,3.1-3.7,4.6c-33.2,33.3-66.4,66.5-99.7,99.7
	c-9.5,9.5-23.4,7.2-28.2-4.8c-3.2-8.1,0-15,5.9-20.9c27.7-27.7,55.4-55.4,83.1-83.1c28.5-28.5,56.9-57.2,85.7-85.4
	c4.7-4.6,5.5-8.7,4.3-14.7c-2.9-14.7-2.2-29.5-1.1-44.4c1.1-15,4.9-29.4,11.3-42.8c5.7-12,12.4-23.7,20-34.6
	c9.6-13.7,22.1-24.9,36-34.1c15.9-10.4,33-18.2,51.7-22.7c16.7-4,33.8-5.3,50.6-3.6c29.9,3,57.3,13.4,81.3,32
	c20.6,15.9,35.9,35.8,46.9,59.2c6.3,13.5,10.3,27.8,12.3,42.5c0.1,0.7,0.6,1.3,1,2C3399,237.7,3399,251.3,3399,265z M3243.1,149
	c-52.8-0.5-92.8,42.1-95,89.6c-2.8,60.1,43.4,100.9,94,101.2c56,0.3,96.5-43,96.7-95.4C3338.9,192.3,3297.3,148.6,3243.1,149z
	 M3170.5,383.4c-29.2-15.9-51.9-38.5-66.8-67.7c-11.6,11.6-23.1,23.1-34.7,34.7c6.2,2.7,12.8,5.8,19.6,8.6
	c13.6,5.6,25.7,13.2,32.8,26.8c5.4,10.4,10.4,21.1,15.5,31.4C3147.9,406,3159.1,394.7,3170.5,383.4z"/>
<path class="st1" d="M2183.2,621.2c1.7,10.5,3,20.5,5.1,30.3c4.8,21.8,15.6,41,26.7,60.1c20.9,35.8,46.7,68.1,71.2,101.4
	c8.6,11.6,15.5,24.5,23.1,36.9c0.6,1,1.2,1.9,2.3,3.7c8.2-9.9,16.9-19,24-29.2c15.1-21.9,29.5-44.2,43.8-66.6
	c2.3-3.6,2.6-8.6,3.4-13c2.5-14,4.6-28,7.2-42c3.1-16.5,6.5-32.9,9.9-49.4c3.6-17.6,7-35.2,11.2-52.6c4.1-17.1,9.1-33.9,13.8-50.8
	c0.4-1.4,1-2.7,1.6-4.2c14.6,3,24.9,11.2,34.1,22.1c8.4,10,16,20.4,21.3,32.2c2.8,6.2,4.7,12.8,6.7,19.3c0.4,1.4-0.3,3.1-0.7,4.7
	c-5.6,20.9-11.3,41.8-16.9,62.6c-0.1,0.5,0.1,1,0.1,1.6c8.2-12.6,15.9-25.4,24.6-37.5c9.5-13.3,19.6-26.2,29.9-38.9
	c6.2-7.7,12.9-15.1,20-22c14.1-13.6,29.2-25.8,48.3-32c19-6.2,38-5.7,56.4,1.4c16,6.1,24,19.7,26.4,35.8c2.2,14.8,3.1,29.9,3,44.8
	c-0.1,14.4-2.4,28.8-3.7,43.2c-0.2,2,0,4,0,7.6c2.8-4.7,4.8-8.3,6.9-11.7c10.2-16.5,19.8-33.4,31-49.3
	c10.9-15.5,23.5-29.8,35.4-44.7c10.5-13.1,23.4-23.5,37.1-33c11.3-7.9,23.6-14.4,37.5-15.8c17-1.7,33.3,1.6,46.2,13.7
	c8.1,7.6,12.1,18,13.7,28.7c1.8,11.8,3.2,23.9,2.9,35.9c-0.3,14.3-2.2,28.5-3.7,42.7c-3.1,28.3-9.9,55.8-17.1,83.3
	c-4.9,18.9-10.4,37.6-16,56.3c-10.7,35.2-21.9,70.2-32.4,105.4c-8,26.8-15.5,53.8-22.8,80.8c-1.4,5.3-1.6,11.1-1.5,16.6
	c0.1,2.8,2.2,5.5,3.3,8.2c2.5-1.6,5.7-2.6,7.3-4.9c9.9-13.8,20-27.5,29-41.9c14.1-22.5,27.7-45.4,40.8-68.5
	c16.1-28.2,31.5-56.8,47.3-85.3c12.3-22.3,24.5-44.7,37-66.9c7.4-13.1,15.1-26,22.8-38.8c7.1-11.7,19.3-12.6,29.9-9.3
	c5.7,1.8,9.8,11.1,7.9,17.4c-1.3,4.3-2.8,8.7-4.8,12.7c-10.8,21.8-21.4,43.8-32.8,65.3c-13.5,25.4-27.5,50.5-41.7,75.5
	c-13.1,23.1-26.5,46.1-40,69c-17.1,29-34.6,57.7-55.4,84.2c-11.7,14.9-23.8,29.4-36.5,43.3c-5.9,6.5-13.1,12-20.6,16.6
	c-12.9,7.8-20.6,6-33.9-3.4c-15.1-10.6-22.4-26.2-24.6-44.1c-1.9-15.2-4-30.5-3.8-45.7c0.2-17.2,2.1-34.5,4.8-51.5
	c3.5-22,8.1-43.9,13-65.7c3.4-14.9,7.9-29.5,12.4-44.2c11-36.1,22.4-72.1,33.4-108.2c4.3-14.3,8-28.8,11.8-43.3
	c0.8-3.1,1.1-6.5,1.3-9.7c0.4-8-5-11.9-12.9-10.4c-12,2.2-21.4,8.9-29.8,17c-17.3,16.6-30.9,36.2-43.1,56.6
	c-9.9,16.5-19.4,33.3-27.8,50.7c-10,20.7-19.1,41.8-27.5,63.2c-10.7,27.1-21.3,54.3-29.9,82.1c-11.9,38.2-22,76.9-32.5,115.5
	c-3.6,13.3-7,26.8-9,40.5c-1.6,10.9-0.9,22.2-1.5,33.3c-0.1,1.3-2.3,3.7-3.2,3.6c-4.9-0.7-10.1-1.4-14.6-3.4
	c-14.9-6.7-28.7-15-40.2-26.9c-5.9-6.1-8.9-13.1-8.9-21.6c0.1-5.5-0.4-11,0.1-16.5c1.4-15,2.6-30.1,5.1-44.9
	c3-18,6.6-35.9,10.9-53.6c9.2-37.5,18.9-74.8,28.6-112.1c7.2-27.9,15.1-55.6,22.1-83.5c4-16.3,7.5-32.8,9.9-49.3
	c1.8-11.9,2.1-24.1,2.1-36.2c0-10.2-10.2-16.9-20.2-15c-13,2.4-21.5,10.8-29.9,20c-10.5,11.4-19.4,23.9-26.7,37.5
	c-9.7,18-19.4,35.9-27.8,54.5c-9.1,20.2-17.2,40.8-24.8,61.6c-8.4,22.9-16.1,46.1-23.7,69.3c-16.3,50.1-31.1,100.7-43.6,152
	c-1.9,7.9-3.3,15.9-5.4,23.8c-0.5,1.9-2.1,4.1-3.8,5c-10.2,5.3-21.1,4.9-31.7,2.3c-15.5-3.9-17.7-5.8-17.3-22.1
	c0.3-14.7,0.9-29.4,2-44.1c1.3-16.9,3-33.7,5-50.5c2.1-18.4,4.5-36.7,7-55.1c1.8-13.1,3.8-26.1,5.7-39.1c-7.5,7.9-15.1,16-22.8,23.8
	c-2.8,2.8-6,5.2-8.8,8c-0.9,0.9-1.5,2.9-1.1,4.1c5.5,17.2,6.9,34.8,5.8,52.7c-0.7,11.3-4.6,21.9-8.7,32.4
	c-9.2,23.2-23.3,43-41.9,59.5c-24.7,21.9-53.1,36.4-85.6,43c-15.9,3.2-32,3.7-47.9,2.6c-24.4-1.6-47.3-8.9-66.6-24.4
	c-13.4-10.7-23-24.6-29.3-40.8c-5.6-14.5-7.2-29.5-5.7-44.6c2.2-22.5,7.3-44.4,20.6-63.5c11.2-16.1,26.5-26.9,44.1-34.2
	c18.5-7.7,38.1-11.6,58.2-12.2c13.8-0.4,27.5-0.9,41.3-0.9c6.9,0,13.7,1.2,20.6,1.8c1.4,0.1,2.9,0,4.4,0
	c-33.1-37.6-66.1-75-99-112.3c-5.6,10.2-11.5,21.1-17.6,31.8c-9.6,16.9-19,33.9-28.9,50.6c-12.8,21.4-25.7,42.8-39,63.9
	c-12.6,20-25.4,39.9-38.8,59.4c-13.5,19.6-27.6,38.9-42.1,57.9c-7.6,9.9-16.3,19.1-25,28.1c-7.8,8-15.9,15.7-24.7,22.5
	c-6.7,5.3-14.7,9-23.6,4.1c-7.5-4-11.5-11-13.5-18.6c-2.8-10.5-5.1-21.3-6-32.1c-1.2-15.5-1.5-31.2-1-46.8
	c0.5-14.9,2.3-29.8,3.8-44.7c1.2-12.1,2.6-24.1,4.1-36.2c0.8-6.6,2.1-13.2,2.2-20.2c-3.2,5.1-6.2,10.3-9.6,15.4
	c-18.6,28.4-37,56.9-56,85c-10.1,15-21,29.6-32.1,43.9c-7.7,10-16,19.7-24.8,28.8c-7.4,7.8-15.4,15.3-23.9,21.9
	c-12.2,9.4-24.4,6.7-35.6-1.5c-11.8-8.7-16.6-21.4-20.3-34.8c-6.1-22.2-6.3-44.9-4.6-67.4c1.7-23.6,5.8-47.1,9.7-70.5
	c6.3-38.1,16.4-75.4,27.6-112.3c3.7-12.1,7.2-24.2,10.9-36.8c-7.1,3.8-13.8,7.7-20.7,11c-13.9,6.8-27.7,14.1-42.1,19.7
	c-14.2,5.5-29,9.6-43.7,13.6c-6.9,1.8-14.3,1.7-21.4,2.8c-1.8,0.3-4,1.4-4.9,2.8c-18.7,29.5-36.7,59.4-56,88.4
	c-14.3,21.5-29.7,42.3-45.5,62.7c-12,15.5-25.3,29.9-38.3,44.6c-21.4,24.2-45.8,44.9-73.1,62.1c-16.1,10.2-33.1,19-52.2,21.1
	c-25.2,2.7-48.5-3.3-68.8-19.4c-20.5-16.2-32-38.3-40.5-62.1c-5.1-14.4-8.8-29.3-12-44.2c-2.1-9.4-2.4-19.2-3.2-28.8
	c-0.9-10.2-1.5-20.4-2-30.6c-0.2-4.2,0.6-8.4,0.2-13c-4.1,6.9-8.2,13.9-12.4,20.8c-14.4,23.5-28.4,47.3-43.5,70.4
	c-14.6,22.4-29.8,44.6-46,65.8c-11.6,15.2-25.1,29-38.5,42.6c-5.7,5.8-12.6,10.7-21.5,12c-7,1-12.9-1-16-6.7
	c-3.7-6.7-7.2-14.2-8.2-21.7c-2-15.2-3.3-30.6-3.1-45.9c0.3-18.6,2.1-37.2,3.8-55.7c1.6-16.5,3.6-32.9,6-49.3
	c2.1-14.2,5.1-28.3,7.6-42.4c1.1-6.2,2.1-12.5,3-17.8c-9.5,10.5-19.6,21.7-29.8,32.7c-3.2,3.5-7.2,6.3-10.5,9.8
	c-1,1-1.6,3.2-1.2,4.5c5.7,17.3,7.3,35.3,5.5,53.2c-1,10.5-4.6,21-8.3,31c-8.9,23.7-23.4,43.7-42.3,60.4
	c-23.2,20.5-49.8,34.4-79.9,41.7c-17.7,4.3-35.7,4.9-53.7,3.7c-24.2-1.6-46.9-8.9-66.1-24.3c-13.4-10.7-23.1-24.5-29.4-40.7
	c-5.6-14.5-7.2-29.5-5.8-44.6c2.2-22.6,7.2-44.4,20.5-63.6c11.3-16.2,26.7-27,44.5-34.5c15-6.3,30.7-10.1,46.9-11
	c18-1,36.1-1.7,54.1-1.9c7.6-0.1,15.3,1.2,23.8,2c-3-3.6-5.4-6.7-8-9.5c-9.6-10.3-19.5-20.3-28.8-30.9
	c-16.4-18.7-32.6-37.5-48.6-56.5c-20.1-23.8-38.3-49-52-77c-6.3-12.9-10.1-26.4-9.9-41.1c0.2-12.9,0.2-25.7,4.2-38.1
	c8.2-25.6,23.8-44.9,48.8-55.8c15.4-6.7,31.8-7.1,48.1-5.8c9.5,0.7,16.1,5.1,20.3,20.3c3.7,13.3,2.3,25.4-7.8,35.4
	c-6.2,6.2-14.3,8.2-24.2,8.2c1.7,10.4,2.8,20.4,5,30.2c4.9,21.9,15.8,41.3,27,60.5c20.8,35.7,46.5,67.9,70.9,101
	c9.2,12.6,17,26.2,25.8,39.9c5.4-6.1,11.5-12.1,16.5-18.9c11.4-15.5,22.8-31.1,33.3-47.3c12-18.4,23.8-37.1,34.2-56.4
	c4.8-8.9,6.4-19.7,9-29.7c9.4-36.2,18.5-72.5,27.8-108.8c11.1-43.2,22.2-86.4,33.4-129.5c1.9-7.2,4-14.4,6-21.6
	c-22.1-0.7-43.9-1.4-67.1-2.2c3.1-6.6,4.9-12.7,8.4-17.6c9-12.5,18.6-24.5,28.2-36.5c2.5-3.2,5.9-5.8,9.2-8.2
	c1.7-1.2,4.2-1.9,6.4-1.9c9.3-0.2,18.7-0.2,28,0c3.1,0.1,4.2-1,5-3.9c6.6-24.3,13.1-48.7,20.4-72.8c5.5-18.2,12.4-36,18.3-54.1
	c1.1-3.4,2.5-3.5,5.4-2.6c12.3,3.9,22.5,11.3,32,19.4c8,6.7,15.7,13.9,22.6,21.7c9.2,10.2,18.4,20.4,22.5,34.1
	c2.1,7.1,1.3,12.5-3.1,19c-5.4,8-8.4,17.6-12.3,26.5c-1.8,4-3.4,8-5.4,12.8c2.4,0,4.2,0,6,0c40.8,0,81.7,0,122.5,0
	c5.9,0,5.8,0.6,5.2,6.7c-1.6,17.8-10.6,32.4-19.3,47.2c-4.2,7.1-9.7,11.4-18.8,10.3c-7.6-0.9-15.3-0.2-23-0.2
	c-29.8,0.3-59.5,0.7-89.3,0.9c-2.7,0-4.1,0.7-4.9,3.4c-4.2,14.4-8.6,28.7-13,43c-10,32.7-20,65.3-30,98
	c-10.2,33.3-20.5,66.5-30.6,99.9c-9.4,31-18.9,61.9-28,93c-12.7,43.9-25.2,87.9-37.5,131.9c-5.5,19.6-10.5,39.3-15.5,59
	c-1.4,5.7-2.4,11.5-3.4,17.2c-0.2,1,0.4,2.1,0.8,4.3c3.8-3.1,7.4-5.2,9.9-8.1c17.6-20.5,32.1-43.3,46.1-66.3
	c14.4-23.7,29-47.3,43.3-71c9.6-15.9,18.8-32.1,28.2-48.1c5.7-9.7,12.1-19.1,16.9-29.2c4.7-10.1,7.5-21.1,11.6-31.5
	c6.6-16.8,13.3-33.6,20.5-50.2c9.6-21.9,22.1-42.2,37-60.9c17.1-21.5,36.6-40.8,61-53.9c10.9-5.8,22.8-10,35.2-11.2
	c9.9-1,19.9-1.7,29.8-0.9c23.5,1.7,45,8.9,60.9,27.7c10.7,12.8,16.5,27.9,20.6,43.9c4.9,19,4.9,38.4,3.7,57.6
	c-1.4,22-6.1,43.6-12.3,64.8c-8.4,28.7-19.7,56.3-33.5,82.8c-13.5,25.8-29.1,50.3-46.8,73.4c-16.2,21.2-33.9,41-53.4,59.2
	c-16.2,15.1-33.9,28.4-52.6,40.3c-1.4,0.9-2.7,1.8-4.6,3c1.6,1.4,2.9,2.9,4.4,4c17.3,12.1,35.4,12.7,54.1,3.5
	c15-7.4,28.2-17.2,40.4-28.5c9.6-8.9,19.8-17.2,28.6-26.8c15.6-17,30.5-34.5,45.4-52.2c25.5-30.3,47.6-63.1,69.3-96.2
	c4.8-7.3,9.4-14.8,14.2-22.5c-13.9-9.7-20.9-23.8-24.5-39.6c-3.1-13.6-3.7-27.5-1.3-41.3c2.4-14.5,4.5-29.1,8.2-43.2
	c5.7-21.9,15.4-42.3,27.9-61.2c11.5-17.3,24.5-33.7,42.9-44.1c6.6-3.7,14.7-4.7,22.2-6.9c8.1-2.3,15.5,0,22.7,3.4
	c10.2,4.8,13.8,13.8,15.1,24.2c3.6,27.9-4.4,53.8-13.6,79.5c-3.6,9.9-8.1,19.6-12.1,29.3c-0.4,1-0.6,2.2-0.9,3.2
	c-1.5,4.8-2.7,17.2,0.6,20.5c8-4.2,15.6-7.8,22.8-12.1c18.6-11.1,37.5-21.9,55.5-33.9c14.7-9.8,28.2-21.2,42.2-32
	c15.1-11.7,28.3-25.4,38.2-41.6c6.5-10.6,10.7-22.6,15.6-34.1c2.8-6.6,4.5-5.3,9.6-3.3c8.5,3.4,14.8,10.1,20.4,16.9
	c10.4,12.4,19.4,25.9,24,41.7c2.5,8.7,2.6,17.2-1.3,25.9c-8.7,19.1-17,38.4-25,57.9c-11.7,28.5-23.6,56.9-34.3,85.7
	c-12.7,34.2-24.9,68.6-36.1,103.2c-9.5,29.5-17.5,59.6-25.9,89.5c-1.8,6.3-2.7,12.8-3.5,19.2c-0.3,2.9,0.8,5.9,1.2,8.8
	c0.6,0.2,1.2,0.5,1.8,0.7c3.7-3.1,7.9-5.8,10.9-9.5c25.3-30.1,46.3-63.2,67-96.5c15.2-24.5,30.5-49,45.4-73.8
	c10.2-17.1,19.7-34.6,29.6-51.9c4.2-7.4,9-14.5,12.4-22.2c3-6.9,4.7-14.5,6.5-21.9c5.5-23.3,10.1-46.8,16.3-69.9
	c9.1-33.8,19.1-67.3,28.8-100.9c1.6-5.6,4-6.6,8.8-3.6c10.5,6.6,20.3,14.2,27.5,24.4c7,9.8,14.1,19.7,20,30.2
	c7,12.6,6.7,26.5,4.9,40.4c-1.3,9.6-2.5,19.1-4.2,28.6c-2.3,12.2-5.1,24.2-7.7,36.3c-8.7,39.6-20.1,78.5-32.5,117.1
	c-13,40.3-26.9,80.2-40.1,120.5c-5,15.3-9,30.9-13.3,46.4c-0.4,1.4-0.2,2.9-0.3,4.7c6.4-0.9,9.7-5.6,12.6-9.6
	c15.6-21.7,31.3-43.5,46-65.8c16-24.4,31.1-49.4,46.3-74.3c13-21.3,25.7-42.8,38.4-64.2c13.7-23.2,27.2-46.5,40.9-69.6
	c1.7-2.8,1.3-4.7-0.4-7.4c-9.2-14.6-17-30.2-18.5-47.5c-3.1-34.5,3-66.5,30.5-90.8c12.1-10.7,26.3-17.6,42.7-18.8
	c7.7-0.6,15.5-0.8,23.3-1c13.9-0.3,20.6,7.6,24.2,19.2c2.8,8.9,3.1,17.9-0.5,26.5C2209.1,615.7,2198.3,620.9,2183.2,621.2z
	 M1277.1,959.1c5.5-4.3,10.9-8,15.7-12.4c16.4-15.4,31.8-31.7,44.2-50.6c13.7-20.7,25.2-42.7,35.8-65.2
	c13.5-28.7,24.1-58.4,31.8-89.1c3.4-13.6,6-27.4,8.4-41.2c1.6-9.4,1.7-19,3.3-28.3c1.6-9.8,0.6-19.3-2.2-28.6
	c-2-6.7-6.4-8.6-12.5-5.3c-10.3,5.6-17.1,14.7-23.5,24.1c-19.4,28.4-35.3,58.8-48.3,90.6c-11.4,28-22.4,56.2-32.4,84.8
	c-6.3,18.1-10.7,36.9-15.3,55.5c-2.4,9.8-4,19.9-4.9,29.9c-1,10.9-0.8,21.8-1.1,32.8C1276,956.9,1276.6,957.7,1277.1,959.1z
	 M934.1,944.6c-0.4-3.3-1.8-9.4-1.9-15.6c-0.1-4.6-2.1-5-5.8-5.1c-6.9-0.1-13.9-0.4-20.8-1c-16-1.4-31.7-4.8-48-3.1
	c-10.5,1.1-20.8,2.6-30.4,6.7c-8.9,3.8-17.4,8.3-23.2,16.8c-9.9,14.6-13.7,30.8-13.9,48.2c-0.2,18.6,8.2,32.9,22.9,43.3
	c11.2,8,23.9,10.5,37.8,8.3c18.6-2.9,34.1-11.6,48.2-23.5c12.1-10.2,20.1-23.4,26.1-37.8C929.5,970.9,934.1,959.8,934.1,944.6z
	 M2122.9,986.8c-0.3,23,8.3,38.3,24.6,49c10.9,7.2,23,9.4,36.1,7.3c19.3-3.1,35.2-12.2,49.6-24.8c11.7-10.3,19.2-23.3,25-37.3
	c4.9-11.9,10-24,8.7-37.4c-0.5-4.9-1.8-9.7-1.8-14.6c0-4.6-2-5.1-5.8-5.1c-6.9-0.1-13.9-0.4-20.8-1c-16-1.4-31.7-4.8-48-3.1
	c-10.5,1.1-20.8,2.7-30.4,6.7c-8.9,3.8-17.4,8.3-23.2,16.7C2127,957.4,2123.8,973.3,2122.9,986.8z M1583.5,719.4
	c3.3-7.4,6.3-14.1,9.3-20.8c11.1-25.5,22.4-51,26.6-78.8c0.4-2.6-1-6-2.7-8.2c-0.9-1.1-4.4-0.9-6.4-0.2c-2.4,0.8-4.6,2.5-6.5,4.3
	c-10.9,10.5-15.7,24.4-19.7,38.3c-3.2,11.2-5.5,22.8-6.9,34.4C1575.9,698.9,1577.2,709.3,1583.5,719.4z"/>
<path class="st0" d="M2038.4,606.3c-4.8-15.4-11.1-29.4-22.3-40.7c-11-11.1-22-22.2-38.2-26.2c6.4-22,12.7-44,19.2-66
	c1.9-6.4,2-6.2,8.5-3.5c11.1,4.6,19.1,13.1,26.4,22c7.8,9.5,14.6,20,20.7,30.8c7.2,12.6,8,26,2.3,39.9
	c-5.6,13.7-10.1,27.8-15.1,41.7C2039.7,604.7,2039.3,605,2038.4,606.3z"/>
<path class="st0" d="M3242.8,308c-34.6,0.8-64.1-28.8-63.6-63.7c0.4-35.3,27.5-63.8,63.8-64c35-0.2,65.3,27.1,64.1,67.1
	C3306,279.4,3277.5,309.5,3242.8,308z"/>
</svg>
